<?xml version="1.0" encoding="UTF-8" standalone="no"?>
<!-- Created with Inkscape (http://www.inkscape.org/) -->

<svg
   xmlns:dc="http://purl.org/dc/elements/1.1/"
   xmlns:cc="http://creativecommons.org/ns#"
   xmlns:rdf="http://www.w3.org/1999/02/22-rdf-syntax-ns#"
   xmlns:svg="http://www.w3.org/2000/svg"
   xmlns="http://www.w3.org/2000/svg"
   xmlns:sodipodi="http://sodipodi.sourceforge.net/DTD/sodipodi-0.dtd"
   xmlns:inkscape="http://www.inkscape.org/namespaces/inkscape"
   width="500px"
   height="500px"
   viewBox="0 0 500 500"
   version="1.1"
   id="SVGRoot"
   inkscape:export-filename="C:\Users\nguye\bitmap.png"
   inkscape:export-xdpi="96"
   inkscape:export-ydpi="96"
   inkscape:version="0.92.4 (5da689c313, 2019-01-14)"
   sodipodi:docname="cloud.svg">
  <defs
     id="defs2099" />
  <sodipodi:namedview
     id="base"
     pagecolor="#ffffff"
     bordercolor="#666666"
     borderopacity="1.0"
     inkscape:pageopacity="0.0"
     inkscape:pageshadow="2"
     inkscape:zoom="1.4"
     inkscape:cx="261.70642"
     inkscape:cy="248.10201"
     inkscape:document-units="px"
     inkscape:current-layer="layer1"
     showgrid="false"
     inkscape:window-width="1920"
     inkscape:window-height="986"
     inkscape:window-x="-11"
     inkscape:window-y="-11"
     inkscape:window-maximized="1" />
  <metadata
     id="metadata2102">
    <rdf:RDF>
      <cc:Work
         rdf:about="">
        <dc:format>image/svg+xml</dc:format>
        <dc:type
           rdf:resource="http://purl.org/dc/dcmitype/StillImage" />
        <dc:title></dc:title>
      </cc:Work>
    </rdf:RDF>
  </metadata>
  <g
     inkscape:label="Layer 1"
     inkscape:groupmode="layer"
     id="layer1">
    <path
       inkscape:connector-curvature="0"
       id="path26"
       style="fill:none;fill-opacity:1;fill-rule:nonzero;stroke:#000000;stroke-width:8;stroke-miterlimit:4;stroke-dasharray:none;stroke-opacity:1"
       d="m 315.84599,286.68964 c 5.64,-5.56134 9.13867,-13.28534 9.13867,-21.832 0,-16.94667 -13.73333,-30.68 -30.672,-30.68 -2.752,0 -5.416,0.37333 -7.952,1.05333 0.0107,-0.34666 0.0253,-0.69333 0.0253,-1.05333 0,-19.8 -16.05866,-35.86667 -35.86933,-35.86667 -16.44933,0 -30.304,11.08 -34.53333,26.18667 -0.77734,-0.12 -1.56534,-0.18667 -2.37334,-0.18667 -8.92,0 -16.228,6.85334 -16.95733,15.6 -0.0253,0 -0.0493,-0.0133 -0.072,-0.0133 -16.36667,0 -29.63333,13.26667 -29.63333,29.64 0,6.38667 2.03466,12.30933 5.48,17.152 h 143.41869" />
  </g>
</svg>
